<svg width="52.979" height="70.02" viewBox="0 0 52.979 70.02" xmlns="http://www.w3.org/2000/svg"><g id="svgGroup" stroke-linecap="round" fill-rule="evenodd" font-size="9pt" stroke="#009900" stroke-width="0.25mm" fill="#009900" style="stroke:#009900;stroke-width:0.25mm;fill:#009900"><path d="M 41.699 10.01 L 10.01 10.01 L 10.01 19.043 L 0 19.043 L 0 10.01 A 9.788 9.788 0 0 1 0.781 6.128 A 9.771 9.771 0 0 1 2.93 2.954 Q 4.297 1.611 6.128 0.806 A 9.533 9.533 0 0 1 10.01 0 L 41.699 0 A 9.533 9.533 0 0 1 45.581 0.806 A 10.315 10.315 0 0 1 48.734 2.933 A 9.911 9.911 0 0 1 48.755 2.954 A 10.308 10.308 0 0 1 50.9 6.121 A 11.578 11.578 0 0 1 50.903 6.128 A 9.533 9.533 0 0 1 51.709 10.01 L 51.709 22.803 A 18.51 18.51 0 0 1 51.623 24.629 Q 51.529 25.578 51.331 26.411 A 11.44 11.44 0 0 1 51.318 26.465 A 9.294 9.294 0 0 1 50.377 28.874 A 8.589 8.589 0 0 1 50.073 29.37 A 9.589 9.589 0 0 1 48.223 31.429 A 10.985 10.985 0 0 1 47.901 31.69 Q 46.667 32.649 44.921 33.523 A 25.488 25.488 0 0 1 44.678 33.643 L 10.01 49.902 L 10.01 60.01 L 42.969 60.01 L 42.969 51.026 L 52.979 51.026 L 52.979 70.02 L 0 70.02 L 0 51.611 A 17.343 17.343 0 0 1 0.098 49.728 A 12.642 12.642 0 0 1 0.415 47.949 A 10.029 10.029 0 0 1 1.182 45.895 A 8.814 8.814 0 0 1 1.66 45.068 A 9.213 9.213 0 0 1 3.116 43.359 A 11.142 11.142 0 0 1 3.833 42.749 A 15.792 15.792 0 0 1 5.491 41.622 A 20.251 20.251 0 0 1 6.983 40.82 L 41.699 24.512 L 41.699 10.01 Z"/></g></svg>