<svg width="54.838" height="70.024" viewBox="0 0 54.838 70.024" xmlns="http://www.w3.org/2000/svg"><g id="svgGroup" stroke-linecap="round" fill-rule="evenodd" font-size="9pt" stroke="#E50000" stroke-width="0.25mm" fill="#E50000" style="stroke:#E50000;stroke-width:0.25mm;fill:#E50000"><path d="M 0.002 53.029 L 0.002 48.83 L 9.816 48.83 L 9.816 52.541 A 14.108 14.108 0 0 0 9.963 54.652 Q 10.324 57.032 11.574 58.351 Q 12.865 59.714 15.368 60.076 A 13.789 13.789 0 0 0 17.336 60.207 L 37.502 60.207 Q 39.874 60.207 41.457 59.556 A 5.137 5.137 0 0 0 43.264 58.351 A 5.616 5.616 0 0 0 44.434 56.412 Q 44.755 55.546 44.901 54.469 A 14.42 14.42 0 0 0 45.021 52.541 L 45.021 47.121 A 14.427 14.427 0 0 0 44.882 45.043 Q 44.527 42.609 43.264 41.31 A 5.188 5.188 0 0 0 41.381 40.108 Q 39.817 39.504 37.502 39.504 L 16.799 39.504 L 16.799 29.738 L 37.209 29.738 Q 40.871 29.592 42.458 27.761 A 5.632 5.632 0 0 0 43.485 25.947 Q 44.045 24.382 44.045 22.121 L 44.045 17.531 A 14.313 14.313 0 0 0 43.904 15.449 Q 43.746 14.38 43.412 13.523 A 5.536 5.536 0 0 0 42.263 11.672 Q 40.923 10.277 38.355 9.931 A 13.72 13.72 0 0 0 36.525 9.816 L 18.312 9.816 A 13.311 13.311 0 0 0 16.261 9.963 Q 13.863 10.338 12.6 11.672 A 5.602 5.602 0 0 0 11.429 13.62 Q 10.842 15.216 10.842 17.531 L 10.842 21.242 L 1.027 21.242 L 1.027 17.043 Q 1.027 3.521 11.727 0.728 A 24.966 24.966 0 0 1 18.019 0.002 L 36.818 0.002 A 28.263 28.263 0 0 1 41.556 0.372 Q 44.088 0.803 46.085 1.738 A 12.306 12.306 0 0 1 49.636 4.201 A 12.971 12.971 0 0 1 52.632 9.114 Q 53.35 11.148 53.631 13.647 A 30.486 30.486 0 0 1 53.81 17.043 L 53.81 18.312 A 27.666 27.666 0 0 1 53.522 22.432 Q 53.196 24.594 52.501 26.389 A 14.428 14.428 0 0 1 51.735 28.054 A 12.935 12.935 0 0 1 45.705 33.742 A 11.381 11.381 0 0 1 52.492 39.016 A 15.191 15.191 0 0 1 54.093 42.967 Q 54.836 45.83 54.836 49.514 L 54.836 53.029 Q 54.836 70.021 37.844 70.021 L 17.043 70.021 Q 3.521 70.021 0.728 59.322 A 24.966 24.966 0 0 1 0.002 53.029 Z"/></g></svg>