<svg width="52.834" height="70.022" viewBox="0 0 52.834 70.022" xmlns="http://www.w3.org/2000/svg"><g id="svgGroup" stroke-linecap="round" fill-rule="evenodd" font-size="9pt" stroke="#7B0000" stroke-width="0.25mm" fill="#7B0000" style="stroke:#7B0000;stroke-width:0.25mm;fill:#7B0000"><path d="M 52.834 42.725 L 52.834 53.027 A 28.554 28.554 0 0 1 52.373 57.833 Q 51.885 60.415 50.886 62.445 A 12.792 12.792 0 0 1 48.537 65.796 Q 45.189 69.203 38.982 69.862 A 29.785 29.785 0 0 1 35.842 70.02 L 17.043 70.02 Q 3.521 70.02 0.728 59.32 A 24.966 24.966 0 0 1 0.002 53.027 L 0.002 48.828 L 9.816 48.828 L 9.816 52.539 A 14.108 14.108 0 0 0 9.963 54.65 Q 10.324 57.03 11.574 58.35 Q 12.865 59.712 15.368 60.074 A 13.789 13.789 0 0 0 17.336 60.205 L 35.5 60.205 Q 37.872 60.205 39.455 59.554 A 5.137 5.137 0 0 0 41.262 58.35 A 5.616 5.616 0 0 0 42.432 56.41 Q 42.753 55.544 42.899 54.467 A 14.42 14.42 0 0 0 43.019 52.539 L 43.019 43.115 A 14.157 14.157 0 0 0 42.88 41.059 Q 42.725 40.003 42.396 39.157 A 5.463 5.463 0 0 0 41.262 37.329 A 5.181 5.181 0 0 0 39.379 36.11 Q 37.815 35.498 35.5 35.498 L 2.004 35.498 L 2.004 0 L 51.027 0 L 51.027 10.01 L 12.014 10.01 L 12.014 25.732 L 35.842 25.732 A 28.184 28.184 0 0 1 40.557 26.1 Q 45.682 26.972 48.635 29.907 Q 52.834 34.082 52.834 42.725 Z"/></g></svg>