<svg width="52.002" height="70.02" viewBox="0 0 52.002 70.02" xmlns="http://www.w3.org/2000/svg"><g id="svgGroup" stroke-linecap="round" fill-rule="evenodd" font-size="9pt" stroke="#007B7B" stroke-width="0.25mm" fill="#007B7B" style="stroke:#007B7B;stroke-width:0.25mm;fill:#007B7B"><path d="M 0 60.01 L 0 10.01 A 9.788 9.788 0 0 1 0.781 6.128 A 9.771 9.771 0 0 1 2.93 2.954 Q 4.297 1.611 6.128 0.806 A 9.533 9.533 0 0 1 10.01 0 L 41.992 0 A 9.533 9.533 0 0 1 45.874 0.806 A 10.622 10.622 0 0 1 49.072 2.954 Q 50.44 4.297 51.221 6.128 Q 52.002 7.959 52.002 10.01 L 52.002 19.043 L 41.992 19.043 L 41.992 10.01 L 10.01 10.01 L 10.01 30.029 L 41.992 30.029 Q 44.043 30.029 45.874 30.811 A 10.055 10.055 0 0 1 49.072 32.959 A 10.055 10.055 0 0 1 51.221 36.157 Q 52.002 37.988 52.002 40.039 L 52.002 60.01 A 9.788 9.788 0 0 1 51.221 63.892 A 10.055 10.055 0 0 1 49.072 67.09 A 10.055 10.055 0 0 1 45.874 69.238 Q 44.043 70.02 41.992 70.02 L 10.01 70.02 A 9.788 9.788 0 0 1 6.128 69.238 A 10.055 10.055 0 0 1 2.93 67.09 A 10.055 10.055 0 0 1 0.781 63.892 Q 0 62.061 0 60.01 Z M 41.992 40.039 L 10.01 40.039 L 10.01 60.01 L 41.992 60.01 L 41.992 40.039 Z"/></g></svg>