<svg width="54.838" height="70.025" viewBox="0 0 54.838 70.025" xmlns="http://www.w3.org/2000/svg"><g id="svgGroup" stroke-linecap="round" fill-rule="evenodd" font-size="9pt" stroke="#777777" stroke-width="0.25mm" fill="#777777" style="stroke:#777777;stroke-width:0.25mm;fill:#777777"><path d="M 37.844 70.022 L 17.043 70.022 Q 3.521 70.022 0.728 59.323 A 24.966 24.966 0 0 1 0.002 53.03 L 0.002 49.514 Q 0.002 44.749 1.245 41.357 A 14.083 14.083 0 0 1 2.346 39.016 A 11.381 11.381 0 0 1 9.133 33.743 A 12.935 12.935 0 0 1 3.102 28.054 Q 1.338 24.796 1.074 20.038 A 31.088 31.088 0 0 1 1.027 18.313 L 1.027 17.044 Q 1.027 3.521 11.727 0.729 A 24.966 24.966 0 0 1 18.019 0.003 L 36.818 0.003 A 24.396 24.396 0 0 1 43.543 0.847 Q 51.083 3.013 53.086 10.733 A 25.175 25.175 0 0 1 53.81 17.044 L 53.81 18.313 A 27.666 27.666 0 0 1 53.522 22.432 Q 53.196 24.595 52.501 26.389 A 14.428 14.428 0 0 1 51.735 28.054 A 12.935 12.935 0 0 1 45.705 33.743 A 11.381 11.381 0 0 1 52.492 39.016 A 15.191 15.191 0 0 1 54.093 42.967 Q 54.836 45.831 54.836 49.514 L 54.836 53.03 Q 54.836 70.022 37.844 70.022 Z M 17.336 60.208 L 37.502 60.208 Q 39.874 60.208 41.457 59.557 A 5.137 5.137 0 0 0 43.264 58.352 A 5.616 5.616 0 0 0 44.434 56.413 Q 44.755 55.546 44.901 54.47 A 14.42 14.42 0 0 0 45.021 52.542 L 45.021 47.122 A 14.427 14.427 0 0 0 44.882 45.043 Q 44.527 42.61 43.264 41.311 A 5.188 5.188 0 0 0 41.381 40.108 Q 39.817 39.504 37.502 39.504 L 17.336 39.504 A 13.989 13.989 0 0 0 15.275 39.645 Q 14.229 39.802 13.399 40.131 A 5.157 5.157 0 0 0 11.574 41.311 A 5.377 5.377 0 0 0 10.42 43.184 Q 10.099 44.03 9.949 45.088 A 14.508 14.508 0 0 0 9.816 47.122 L 9.816 52.542 A 14.108 14.108 0 0 0 9.963 54.653 Q 10.324 57.033 11.574 58.352 Q 12.865 59.715 15.368 60.077 A 13.789 13.789 0 0 0 17.336 60.208 Z M 17.629 29.739 L 37.209 29.739 Q 40.871 29.592 42.434 27.761 A 5.654 5.654 0 0 0 43.445 25.948 Q 43.738 25.117 43.875 24.089 A 14.905 14.905 0 0 0 43.996 22.122 L 43.996 17.532 A 14.509 14.509 0 0 0 43.857 15.45 Q 43.702 14.381 43.372 13.524 A 5.549 5.549 0 0 0 42.238 11.672 A 5.229 5.229 0 0 0 40.28 10.404 Q 38.75 9.817 36.525 9.817 L 18.312 9.817 A 13.311 13.311 0 0 0 16.261 9.964 Q 13.863 10.339 12.6 11.672 A 5.602 5.602 0 0 0 11.429 13.62 Q 10.842 15.217 10.842 17.532 L 10.842 22.122 A 14.555 14.555 0 0 0 10.974 24.158 Q 11.117 25.165 11.413 25.981 A 5.611 5.611 0 0 0 12.429 27.761 Q 13.672 29.196 16.159 29.596 A 12.42 12.42 0 0 0 17.629 29.739 Z"/></g></svg>