<svg xmlns="http://www.w3.org/2000/svg" viewBox="0 0 83.53 83.53" width="83.53" height="83.53"><g data-name="Layer 2"><g data-name="Layer 1"><path d="M83 38.73H67.53a25.85 25.85 0 0 0-5.4-13l7.14-7.15a.56.56 0 0 0 0-.81l-3.47-3.52a.6.6 0 0 0-.81 0l-7.15 7.15a25.8 25.8 0 0 0-13-5.4V.58a.58.58 0 0 0-.62-.58h-4.91a.58.58 0 0 0-.58.58V16a25.76 25.76 0 0 0-13 5.4l-7.15-7.15a.6.6 0 0 0-.81 0l-3.48 3.48a.58.58 0 0 0 0 .81l7.15 7.15a25.76 25.76 0 0 0-5.4 13H.58a.58.58 0 0 0-.58.58v4.91a.58.58 0 0 0 .58.58H16a25.8 25.8 0 0 0 5.4 13L14.25 65a.59.59 0 0 0-.17.4.61.61 0 0 0 .17.41l3.48 3.47a.56.56 0 0 0 .81 0l7.15-7.14a25.85 25.85 0 0 0 13 5.4V83a.58.58 0 0 0 .58.58h4.91a.58.58 0 0 0 .62-.58V67.53a25.89 25.89 0 0 0 13-5.4l7.2 7.14a.56.56 0 0 0 .81 0l3.47-3.47a.56.56 0 0 0 0-.81l-7.14-7.15a25.89 25.89 0 0 0 5.4-13H83a.58.58 0 0 0 .58-.58v-4.95a.58.58 0 0 0-.58-.58Z"/><circle cx="33.48" cy="32.15" r="7.16" fill="#fff"/></g></g></svg>