<svg xmlns="http://www.w3.org/2000/svg" xmlns:xlink="http://www.w3.org/1999/xlink" viewBox="0 0 55.19 55.19" width="55.19" height="55.19"><defs><linearGradient id="New_Gradient_Swatch_9" x1="27.59" y1="55.19" x2="27.59" y2="5.12" gradientUnits="userSpaceOnUse"><stop offset="0" stop-color="#ff0"/><stop offset="1" stop-color="#f90"/></linearGradient><linearGradient id="linear-gradient" x1="27.59" y1="55.19" x2="27.59" y2="5.12" gradientUnits="userSpaceOnUse"><stop offset="0" stop-color="#f90"/><stop offset="1" stop-color="#ff0"/></linearGradient><linearGradient id="linear-gradient-2" x1="27.59" y1="31.64" x2="27.59" y2="10.19" gradientUnits="userSpaceOnUse"><stop offset=".06" stop-color="#fff" stop-opacity="0"/><stop offset=".17" stop-color="#fff" stop-opacity=".04"/><stop offset=".35" stop-color="#fff" stop-opacity=".13"/><stop offset=".58" stop-color="#fff" stop-opacity=".29"/><stop offset=".84" stop-color="#fff" stop-opacity=".51"/><stop offset=".88" stop-color="#fff" stop-opacity=".55"/></linearGradient><linearGradient id="linear-gradient-3" x1="42.53" y1="22.42" x2="42.53" y2="8.74" gradientUnits="userSpaceOnUse"><stop offset="0" stop-color="#3ff"/><stop offset="1" stop-color="#3cf"/></linearGradient><linearGradient id="linear-gradient-4" x1="42.53" y1="23.17" x2="42.53" y2="7.99" gradientUnits="userSpaceOnUse"><stop offset="0" stop-color="#2699bf"/><stop offset=".5" stop-color="#3ff"/></linearGradient><linearGradient id="linear-gradient-5" x1="42.53" y1="20.29" x2="42.53" y2="10.87" gradientUnits="userSpaceOnUse"><stop offset="0" stop-color="#fff" stop-opacity="0"/><stop offset=".88" stop-color="#fff"/></linearGradient><linearGradient id="linear-gradient-6" x1="42.53" y1="20.29" x2="42.53" y2="10.87" gradientUnits="userSpaceOnUse"><stop offset="0" stop-color="#fff" stop-opacity="0"/><stop offset="1" stop-color="#fff"/></linearGradient><linearGradient id="linear-gradient-7" x1="31.58" y1="14.32" x2="31.58" y2="4.06" xlink:href="#linear-gradient-3"/><linearGradient id="linear-gradient-8" x1="31.58" y1="14.89" x2="31.58" y2="3.5" xlink:href="#linear-gradient-4"/><linearGradient id="linear-gradient-9" x1="31.58" y1="12.72" x2="31.58" y2="5.66" xlink:href="#linear-gradient-5"/><linearGradient id="linear-gradient-10" x1="31.58" y1="12.72" x2="31.58" y2="5.66" xlink:href="#linear-gradient-6"/><style>.cls-7{opacity:.75}.cls-7,.cls-9{mix-blend-mode:screen}.cls-15{fill:#fffc92}</style></defs><g style="isolation:isolate"><g id="Layer_2" data-name="Layer 2"><g id="Layer_1-2" data-name="Layer 1"><g id="emoji_sweat"><g id="emoji_sweat-2" data-name="emoji_sweat"><path d="M27.59 53.9a26.31 26.31 0 1 1 26.32-26.31A26.34 26.34 0 0 1 27.59 53.9Z"/><path d="M27.59 2.56a25 25 0 1 1-25 25 25 25 0 0 1 25-25m0-2.56a27.6 27.6 0 1 0 27.6 27.59A27.63 27.63 0 0 0 27.59 0Z"/><circle cx="27.59" cy="30.15" r="25.03" fill="url(#New_Gradient_Swatch_9)"/><path d="M27.59 7.16a23 23 0 1 1-23 23 23 23 0 0 1 23-23m0-2a25 25 0 1 0 25 25 25 25 0 0 0-25-25Z" fill="url(#linear-gradient)"/><ellipse cx="27.59" cy="20.92" rx="16.49" ry="10.72" fill="url(#linear-gradient-2)"/></g><path d="M38.6 18.49a3.94 3.94 0 0 0 7.87 0c0-4.18-3.56-6.5-4-9.75C42 12 38.6 14.31 38.6 18.49Z" fill="url(#linear-gradient-3)"/><path d="M42.5 8.74c.41 3.25 4 5.57 4 9.75a3.94 3.94 0 0 1-7.87 0c0-4.18 3.42-6.5 3.9-9.75m0-.75a.76.76 0 0 0-.75.64 10 10 0 0 1-1.66 3.66 11.5 11.5 0 0 0-2.24 6.2 4.69 4.69 0 0 0 9.37 0c0-2.55-1.21-4.46-2.28-6.15a9.61 9.61 0 0 1-1.7-3.7.75.75 0 0 0-.77-.64Z" fill="url(#linear-gradient-4)"/><g class="cls-7"><path d="M39.45 17.59a3.11 3.11 0 0 0 6.17 0c0-2.88-2.79-4.48-3.12-6.72-.37 2.24-3.05 3.84-3.05 6.72Z" fill="url(#linear-gradient-5)"/><path d="M42.5 12.87c.25.41.53.81.82 1.2a6 6 0 0 1 1.55 3.52 2.37 2.37 0 0 1-4.67 0A6.2 6.2 0 0 1 41.73 14c.26-.37.53-.76.77-1.15m0-2c-.37 2.24-3 3.84-3 6.72a3.11 3.11 0 0 0 6.17 0c0-2.88-2.79-4.48-3.12-6.72Z" fill="url(#linear-gradient-6)" class="cls-9"/></g><path d="M28.63 11.37a2.95 2.95 0 0 0 5.9 0c0-3.13-2.67-4.87-3-7.31-.34 2.44-2.9 4.18-2.9 7.31Z" fill="url(#linear-gradient-7)"/><path d="M31.55 4.06c.31 2.44 3 4.18 3 7.31a3 3 0 0 1-5.9 0c0-3.13 2.56-4.87 2.92-7.31m0-.56A.56.56 0 0 0 31 4a7.75 7.75 0 0 1-1.25 2.75 8.66 8.66 0 0 0-1.68 4.64 3.52 3.52 0 1 0 7 0 8.45 8.45 0 0 0-1.71-4.61A7.24 7.24 0 0 1 32.11 4a.56.56 0 0 0-.56-.49Z" fill="url(#linear-gradient-8)"/><g class="cls-7"><path d="M29.26 10.69a2.34 2.34 0 0 0 4.63 0c0-2.15-2.09-3.35-2.34-5-.27 1.65-2.29 2.85-2.29 5Z" fill="url(#linear-gradient-9)"/><path d="M31.55 7.16c.19.31.4.6.61.89a4.59 4.59 0 0 1 1.17 2.64 1.78 1.78 0 0 1-3.51 0A4.65 4.65 0 0 1 31 8c.2-.28.4-.57.58-.86m0-1.5c-.27 1.68-2.29 2.88-2.29 5a2.34 2.34 0 0 0 4.63 0c0-2.15-2.09-3.35-2.34-5Z" fill="url(#linear-gradient-10)" class="cls-9"/></g><circle class="cls-15" cx="27.3" cy="42.19" r="3.32"/><circle cx="27.3" cy="41.55" r="3.32"/></g><circle class="cls-15" cx="18.16" cy="26.2" r="2.41"/><circle cx="18.16" cy="25.56" r="2.41"/><circle class="cls-15" cx="36.2" cy="26.2" r="2.41"/><circle cx="36.2" cy="25.56" r="2.41"/></g></g></g></svg>