<svg xmlns="http://www.w3.org/2000/svg" xmlns:xlink="http://www.w3.org/1999/xlink" viewBox="0 0 55.19 55.19" width="55.19" height="55.19"><defs><linearGradient id="New_Gradient_Swatch_9" x1="27.59" y1="55.19" x2="27.59" y2="5.12" gradientUnits="userSpaceOnUse"><stop offset="0" stop-color="#ff0"/><stop offset="1" stop-color="#f90"/></linearGradient><linearGradient id="linear-gradient" x1="27.59" y1="55.19" x2="27.59" y2="5.12" gradientUnits="userSpaceOnUse"><stop offset="0" stop-color="#f90"/><stop offset="1" stop-color="#ff0"/></linearGradient><linearGradient id="linear-gradient-2" x1="27.59" y1="31.64" x2="27.59" y2="10.19" gradientUnits="userSpaceOnUse"><stop offset=".06" stop-color="#fff" stop-opacity="0"/><stop offset=".17" stop-color="#fff" stop-opacity=".04"/><stop offset=".35" stop-color="#fff" stop-opacity=".13"/><stop offset=".58" stop-color="#fff" stop-opacity=".29"/><stop offset=".84" stop-color="#fff" stop-opacity=".51"/><stop offset=".88" stop-color="#fff" stop-opacity=".55"/></linearGradient><linearGradient id="linear-gradient-3" x1="27.59" y1="34.32" x2="27.59" y2="20.87" gradientUnits="userSpaceOnUse"><stop offset="0"/><stop offset=".2" stop-color="#151515"/><stop offset=".43" stop-color="#262626"/><stop offset=".68" stop-color="#303030"/><stop offset="1" stop-color="#333"/></linearGradient><linearGradient id="linear-gradient-4" x1="17.56" y1="32.63" x2="17.56" y2="22.56" gradientUnits="userSpaceOnUse"><stop offset="0" stop-color="#4d4d4d" stop-opacity="0"/><stop offset="1" stop-color="#4d4d4d"/></linearGradient><linearGradient id="linear-gradient-5" x1="-4240.84" y1="32.63" x2="-4240.84" y2="22.56" gradientTransform="matrix(-1 0 0 1 -4203.21 0)" xlink:href="#linear-gradient-4"/><linearGradient id="linear-gradient-6" x1="17.56" y1="25.55" x2="17.56" y2="22.56" gradientUnits="userSpaceOnUse"><stop offset="0" stop-color="#666" stop-opacity="0"/><stop offset="1" stop-color="#666"/></linearGradient><linearGradient id="linear-gradient-7" x1="37.62" y1="25.55" x2="37.62" y2="22.56" xlink:href="#linear-gradient-6"/><radialGradient id="radial-gradient" cx="27.59" cy="27.59" r="14.86" gradientUnits="userSpaceOnUse"><stop offset="0" stop-color="#333"/><stop offset=".28" stop-color="#2a2a2a"/><stop offset=".72" stop-color="#121212"/><stop offset="1"/></radialGradient><style>.cls-3{fill:#fffc92}</style></defs><g id="Layer_2" data-name="Layer 2"><g id="Layer_1-2" data-name="Layer 1"><g id="emoji_sunglasses"><path d="M27.59 53.9a26.31 26.31 0 1 1 26.32-26.31A26.34 26.34 0 0 1 27.59 53.9Z"/><path d="M27.59 2.56a25 25 0 1 1-25 25 25 25 0 0 1 25-25m0-2.56a27.6 27.6 0 1 0 27.6 27.59A27.63 27.63 0 0 0 27.59 0Z"/><circle cx="27.59" cy="30.15" r="25.03" fill="url(#New_Gradient_Swatch_9)"/><path d="M27.59 7.16a23 23 0 1 1-23 23 23 23 0 0 1 23-23m0-2a25 25 0 1 0 25 25 25 25 0 0 0-25-25Z" fill="url(#linear-gradient)"/><path class="cls-3" d="M27.59 45.51c9.45 0 9.24-8.1 9.24-8.1s-9.91 4.05-18.48 0c0 0-.2 8.1 9.24 8.1"/><path d="M27.59 44.87c9.45 0 9.24-8.1 9.24-8.1s-9.91 4-18.48 0c0 0-.2 8.1 9.24 8.1"/><ellipse cx="27.59" cy="20.92" rx="16.49" ry="10.72" fill="url(#linear-gradient-2)"/><path class="cls-3" d="M38.42 35a11.79 11.79 0 0 1-4.74-1.1 8.15 8.15 0 0 1-3.42-3.67 23.69 23.69 0 0 1-1.38-3.53 1.36 1.36 0 0 0-2.34-.53 1.82 1.82 0 0 0-.31.66 22.8 22.8 0 0 1-1.64 4 7.69 7.69 0 0 1-4.87 3.78 10.69 10.69 0 0 1-5.53.11 5.47 5.47 0 0 1-4-4c-.48-1.61-.85-3.25-1.25-4.88a1.43 1.43 0 0 0-.67-1A.87.87 0 0 1 7.8 24c0-.45-.07-.91-.12-1.36s.11-.47.45-.53c1.35-.22 2.71-.34 4.07-.46a41.82 41.82 0 0 1 4.48-.12 22.84 22.84 0 0 1 8 1.46 7.67 7.67 0 0 0 5.71 0 26.67 26.67 0 0 1 11.71-1.38c1.65.11 3.3.25 4.94.5.42.06.52.22.45.61a9.1 9.1 0 0 0-.09 1.05 1.1 1.1 0 0 1-.58 1.08 1.35 1.35 0 0 0-.62 1c-.33 1.37-.65 2.74-1 4.11a5.84 5.84 0 0 1-5.61 4.86 5.82 5.82 0 0 1-1.17.18Z"/><path d="M38.42 34.31a11.79 11.79 0 0 1-4.74-1.1 8.15 8.15 0 0 1-3.42-3.67A23.69 23.69 0 0 1 28.88 26a1.36 1.36 0 0 0-2.34-.53 1.82 1.82 0 0 0-.31.66 22.8 22.8 0 0 1-1.64 4 7.69 7.69 0 0 1-4.87 3.78 10.69 10.69 0 0 1-5.53.11 5.47 5.47 0 0 1-4-4c-.48-1.61-.85-3.25-1.25-4.88a1.43 1.43 0 0 0-.67-1 .87.87 0 0 1-.46-.81c0-.45-.07-.91-.12-1.36s.11-.47.45-.53c1.35-.22 2.71-.34 4.07-.46a41.82 41.82 0 0 1 4.48-.12 22.84 22.84 0 0 1 8 1.46 7.67 7.67 0 0 0 5.71 0A26.67 26.67 0 0 1 42.1 21c1.65.11 3.3.25 4.94.5.42.06.52.22.45.61a9.1 9.1 0 0 0-.09 1.05 1.1 1.1 0 0 1-.58 1.08 1.35 1.35 0 0 0-.62 1c-.33 1.37-.65 2.74-1 4.11a5.84 5.84 0 0 1-5.61 4.86 5.82 5.82 0 0 1-1.17.1Z" fill="url(#radial-gradient)"/><path d="M15.54 21.48h1.12a22.39 22.39 0 0 1 7.76 1.42 8.81 8.81 0 0 0 3.18.62 8.05 8.05 0 0 0 3-.58 23 23 0 0 1 8.65-1.47c.89 0 1.81 0 2.84.1 1.88.12 3.41.28 4.81.48a7.82 7.82 0 0 0-.07.81v.22c0 .43-.08.49-.23.57a2 2 0 0 0-.95 1.43v.18c-.31 1.31-.62 2.62-.94 3.93a5.24 5.24 0 0 1-5.08 4.4h-.37a3.75 3.75 0 0 1-.56.05h-.17a11.23 11.23 0 0 1-4.5-1.05 7.58 7.58 0 0 1-3.15-3.41A11.72 11.72 0 0 1 29.87 27c-.13-.38-.27-.78-.42-1.18a2.07 2.07 0 0 0-1.9-1.4 1.94 1.94 0 0 0-1.46.68 2.15 2.15 0 0 0-.41.77v.1l-.17.48a18.72 18.72 0 0 1-1.42 3.37 7.12 7.12 0 0 1-4.5 3.5 11.36 11.36 0 0 1-2.91.4 8.79 8.79 0 0 1-2.3-.3 4.78 4.78 0 0 1-3.58-3.53c-.38-1.26-.7-2.58-1-3.85l-.24-1a2 2 0 0 0-1-1.39c-.09-.05-.13-.07-.14-.3s-.05-.69-.09-1v-.23c1.19-.2 2.42-.31 3.61-.42h.34c1-.09 2.07-.13 3.28-.13m0-.61c-1.12 0-2.23 0-3.34.13-1.36.12-2.72.24-4.07.46-.34.06-.48.2-.45.53s.1.91.12 1.36a.87.87 0 0 0 .46.81 1.43 1.43 0 0 1 .67 1c.4 1.63.77 3.27 1.25 4.88a5.47 5.47 0 0 0 4 4 9.87 9.87 0 0 0 2.46.31 12 12 0 0 0 3.07-.42 7.69 7.69 0 0 0 4.87-3.78 22.8 22.8 0 0 0 1.64-4 1.82 1.82 0 0 1 .31-.66 1.35 1.35 0 0 1 1-.47 1.45 1.45 0 0 1 1.33 1 23.69 23.69 0 0 0 1.38 3.53 8.15 8.15 0 0 0 3.42 3.67 11.79 11.79 0 0 0 4.74 1.1h.19a8.1 8.1 0 0 0 1-.11 5.84 5.84 0 0 0 5.61-4.86c.34-1.37.66-2.74 1-4.11a1.39 1.39 0 0 1 .63-1 1.1 1.1 0 0 0 .58-1.08 9.1 9.1 0 0 1 .09-1.05c.07-.39 0-.55-.45-.61-1.64-.25-3.29-.39-4.94-.5-1-.06-1.92-.1-2.88-.1a23.77 23.77 0 0 0-8.87 1.51 7.42 7.42 0 0 1-2.75.53 8.32 8.32 0 0 1-3-.57 22.84 22.84 0 0 0-8-1.46Z" fill="url(#linear-gradient-3)"/><path d="M10.34 23.39s7.86-2.37 14.19.88c1 .61-1.07 7.94-7.43 8.34s-6.76-9.22-6.76-9.22Z" fill="url(#linear-gradient-4)"/><path d="M44.85 23.39S37 21 30.65 24.27c-1 .61 1.07 7.94 7.44 8.34s6.76-9.22 6.76-9.22Z" fill="url(#linear-gradient-5)"/><path d="M24.74 25.55c.09-.66 0-1.14-.21-1.28-6.33-3.25-14.19-.88-14.19-.88s0 .49.12 1.25a22.77 22.77 0 0 1 14.28.91Z" fill="url(#linear-gradient-6)"/><path d="M30.45 25.55c-.1-.66 0-1.14.2-1.28 6.33-3.25 14.2-.88 14.2-.88s0 .49-.13 1.25a22.74 22.74 0 0 0-14.27.91Z" fill="url(#linear-gradient-7)"/></g></g></g></svg>