<svg xmlns="http://www.w3.org/2000/svg" viewBox="0 0 55.19 55.19" width="55.19" height="55.19"><defs><linearGradient id="New_Gradient_Swatch_9" x1="27.59" y1="55.19" x2="27.59" y2="5.12" gradientUnits="userSpaceOnUse"><stop offset="0" stop-color="#ff0"/><stop offset="1" stop-color="#f90"/></linearGradient><linearGradient id="linear-gradient" x1="27.59" y1="55.19" x2="27.59" y2="5.12" gradientUnits="userSpaceOnUse"><stop offset="0" stop-color="#f90"/><stop offset="1" stop-color="#ff0"/></linearGradient><linearGradient id="linear-gradient-2" x1="27.59" y1="31.64" x2="27.59" y2="10.19" gradientUnits="userSpaceOnUse"><stop offset=".06" stop-color="#fff" stop-opacity="0"/><stop offset=".17" stop-color="#fff" stop-opacity=".04"/><stop offset=".35" stop-color="#fff" stop-opacity=".13"/><stop offset=".58" stop-color="#fff" stop-opacity=".29"/><stop offset=".84" stop-color="#fff" stop-opacity=".51"/><stop offset=".88" stop-color="#fff" stop-opacity=".55"/></linearGradient><style>.cls-3{fill:#fffc92}</style></defs><g id="Layer_2" data-name="Layer 2"><g id="Layer_1-2" data-name="Layer 1"><g id="emoji_happy"><path d="M27.59 53.9A26.31 26.31 0 1 1 53.9 27.59 26.34 26.34 0 0 1 27.59 53.9Z"/><path d="M27.59 2.56a25 25 0 1 1-25 25 25 25 0 0 1 25-25m0-2.56a27.6 27.6 0 1 0 27.6 27.59A27.63 27.63 0 0 0 27.59 0Z"/><circle cx="27.59" cy="30.15" r="25.03" fill="url(#New_Gradient_Swatch_9)"/><path d="M27.59 7.16a23 23 0 1 1-23 23 23 23 0 0 1 23-23m0-2a25 25 0 1 0 25 25 25 25 0 0 0-25-25Z" fill="url(#linear-gradient)"/><path class="cls-3" d="M36.07 26.69a4.49 4.49 0 0 1 4.29 3.22 4.49 4.49 0 1 0-8.58 0 4.49 4.49 0 0 1 4.29-3.22Zm-17.91-2.56a4.43 4.43 0 0 0-4.29 5.78 4.46 4.46 0 0 1 8.57 0 4.43 4.43 0 0 0-4.28-5.78Z"/><path d="M36.07 26.05a4.49 4.49 0 0 1 4.29 3.22 4.49 4.49 0 1 0-8.58 0 4.49 4.49 0 0 1 4.29-3.22Zm-17.91-2.56a4.43 4.43 0 0 0-4.29 5.78 4.46 4.46 0 0 1 8.57 0 4.43 4.43 0 0 0-4.28-5.78Z"/><path class="cls-3" d="M27.59 45.51c9.45 0 9.24-8.1 9.24-8.1s-9.91 4.05-18.48 0c0 0-.2 8.1 9.24 8.1"/><path d="M27.59 44.87c9.45 0 9.24-8.1 9.24-8.1s-9.91 4-18.48 0c0 0-.2 8.1 9.24 8.1"/><ellipse cx="27.59" cy="20.92" rx="16.49" ry="10.72" fill="url(#linear-gradient-2)"/></g></g></g></svg>