<svg xmlns="http://www.w3.org/2000/svg" viewBox="0 0 67.07 65.61" width="67.07" height="65.61"><g data-name="Layer 2"><g data-name="Layer 1"><path d="M66.49 56.34H55.07v-6.05a.58.58 0 0 0-.58-.58H37.9V7.85a1.16 1.16 0 0 0-.6-1 1.14 1.14 0 0 0-1.17 0l-6.43 4.08a1.17 1.17 0 0 0-.53 1v37.8h-16.6a.58.58 0 0 0-.58.58v6.05H.58a.58.58 0 0 0-.58.58V65a.58.58 0 0 0 .58.57h65.91a.58.58 0 0 0 .58-.57v-8.08a.58.58 0 0 0-.58-.58Z"/><path d="M37.4.21a1.12 1.12 0 0 0-1-.14L2.26 12.6a1.14 1.14 0 0 0 0 2.17l34.13 11.09a1.13 1.13 0 0 0 .36.06 1.16 1.16 0 0 0 1.15-1.16V1.15a1.15 1.15 0 0 0-.5-.94Z" fill="#e50000"/></g></g></svg>