<svg width="653.502" height="71.901" viewBox="0 0 653.502 71.901" xmlns="http://www.w3.org/2000/svg"><g id="svgGroup" stroke-linecap="round" fill-rule="evenodd" font-size="9pt" stroke="#000" stroke-width="0.25mm" fill="" style="stroke:#000;stroke-width:0.25mm;fill:"><path d="M 308.202 68.4 L 297.902 1.9 Q 297.602 0.8 308.002 0.8 A 109.644 109.644 0 0 1 311.322 0.847 Q 318.137 1.054 319.48 2.19 A 0.851 0.851 0 0 1 319.802 2.7 L 324.702 44.8 L 335.302 2.2 Q 335.802 0.7 343.102 0.7 Q 350.402 0.7 350.902 2.1 L 361.302 45 L 367.102 2.5 A 0.858 0.858 0 0 1 367.494 1.973 Q 368.454 1.296 371.702 1 A 132.043 132.043 0 0 1 374.286 0.789 Q 376.769 0.613 378.552 0.601 A 38.049 38.049 0 0 1 378.802 0.6 A 123.201 123.201 0 0 1 381.743 0.633 Q 389.01 0.807 389.01 1.924 A 0.365 0.365 0 0 1 389.002 2 L 376.902 68.3 A 1.415 1.415 0 0 1 376.344 69.041 Q 375.094 69.986 371.202 70.5 Q 366.019 71.185 362.749 71.2 A 31.747 31.747 0 0 1 362.602 71.2 A 84.928 84.928 0 0 1 358.688 71.118 Q 350.562 70.741 349.679 68.645 A 1.365 1.365 0 0 1 349.602 68.4 L 342.802 40.9 L 335.402 68.3 A 1.567 1.567 0 0 1 334.752 69.186 Q 333.249 70.313 328.402 70.9 Q 325.002 71.2 321.602 71.2 L 315.202 70.9 Q 310.221 70.372 308.771 69.217 A 1.476 1.476 0 0 1 308.202 68.4 Z M 61.102 69 L 59.002 28.9 L 46.802 69.5 A 0.944 0.944 0 0 1 46.292 69.993 Q 45.015 70.649 40.699 70.697 A 63.028 63.028 0 0 1 40.002 70.7 Q 33.602 70.7 33.402 69.6 L 20.802 28.5 L 19.402 68.4 Q 19.302 69.9 15.602 70.45 A 64.386 64.386 0 0 1 13.206 70.764 Q 12.133 70.882 11.194 70.941 A 27.792 27.792 0 0 1 9.452 71 A 36.796 36.796 0 0 1 4.846 70.719 A 34.008 34.008 0 0 1 4.702 70.7 Q -0.098 70 0.002 68.2 L 2.302 3.2 Q 2.302 0.8 14.502 0.8 Q 16.977 0.8 20.208 1.06 A 124.054 124.054 0 0 1 23.302 1.35 A 27.857 27.857 0 0 1 25.09 1.594 Q 27.843 2.067 28.743 2.964 A 1.508 1.508 0 0 1 29.102 3.5 L 40.302 35 L 50.102 3.4 A 2.123 2.123 0 0 1 51.212 2.309 Q 53.868 0.91 62.514 0.808 A 118.379 118.379 0 0 1 63.902 0.8 A 61.58 61.58 0 0 1 66.881 0.878 Q 68.539 0.958 70.418 1.123 A 123.088 123.088 0 0 1 72.752 1.35 Q 76.491 1.75 77.515 2.597 A 0.913 0.913 0 0 1 77.902 3.3 L 80.802 68.9 A 0.761 0.761 0 0 1 80.476 69.486 Q 79.866 69.988 78.112 70.314 A 21.926 21.926 0 0 1 76.902 70.5 A 68.798 68.798 0 0 1 73.662 70.842 Q 72.183 70.961 70.864 70.99 A 38.332 38.332 0 0 1 70.002 71 A 61.988 61.988 0 0 1 67.438 70.952 Q 62.092 70.729 61.257 69.493 A 0.863 0.863 0 0 1 61.102 69 Z M 188.402 2.8 L 188.402 68.7 A 1.17 1.17 0 0 1 187.719 69.68 Q 185.868 70.8 179.002 70.8 Q 170.285 70.8 168.964 69.511 A 0.865 0.865 0 0 1 168.802 69.3 L 152.102 38.1 L 152.102 69.2 A 0.95 0.95 0 0 1 151.524 69.988 Q 149.79 71 142.852 71 A 74.387 74.387 0 0 1 140.187 70.956 Q 133.602 70.719 133.602 69.2 L 133.602 2.3 A 0.793 0.793 0 0 1 134.096 1.644 Q 135.577 0.8 141.502 0.8 A 42.067 42.067 0 0 1 143.975 0.878 Q 145.339 0.958 146.864 1.123 A 78.26 78.26 0 0 1 148.752 1.35 Q 152.777 1.884 153.745 3.311 A 1.913 1.913 0 0 1 153.802 3.4 L 169.802 34.2 L 169.802 2.8 Q 169.802 1.045 177.736 0.911 A 80.982 80.982 0 0 1 179.102 0.9 A 71.239 71.239 0 0 1 181.781 0.947 Q 187.306 1.156 188.221 2.307 A 0.778 0.778 0 0 1 188.402 2.8 Z M 218.002 28.7 L 230.902 28.7 A 1.147 1.147 0 0 1 231.873 29.334 Q 232.578 30.451 232.748 33.54 A 39.572 39.572 0 0 1 232.802 35.7 A 24.222 24.222 0 0 1 232.728 37.53 Q 232.653 38.512 232.504 39.619 A 46.964 46.964 0 0 1 232.352 40.65 Q 231.959 43.142 230.992 43.455 A 0.934 0.934 0 0 1 230.702 43.5 L 218.002 43.5 L 218.002 53.5 L 236.402 53.5 A 1.376 1.376 0 0 1 237.482 54.069 Q 238.318 55.082 238.702 57.9 A 24.656 24.656 0 0 1 238.973 60.631 A 29.19 29.19 0 0 1 239.002 61.95 Q 239.002 64.1 238.402 67.5 Q 237.802 70.9 236.402 70.9 L 202.202 70.9 A 6.842 6.842 0 0 1 200.815 70.772 Q 198.402 70.271 198.402 67.8 L 198.402 3.5 A 4.279 4.279 0 0 1 198.504 2.519 Q 198.817 1.196 200.088 0.954 A 3.293 3.293 0 0 1 200.702 0.9 L 236.502 0.9 A 1.201 1.201 0 0 1 237.511 1.591 Q 238.523 3.243 238.596 8.85 A 68.891 68.891 0 0 1 238.602 9.75 Q 238.602 17.738 236.891 18.516 A 0.929 0.929 0 0 1 236.502 18.6 L 218.002 18.6 L 218.002 28.7 Z M 415.702 28.7 L 428.602 28.7 A 1.147 1.147 0 0 1 429.573 29.334 Q 430.278 30.451 430.448 33.54 A 39.572 39.572 0 0 1 430.502 35.7 A 24.222 24.222 0 0 1 430.428 37.53 Q 430.353 38.512 430.204 39.619 A 46.964 46.964 0 0 1 430.052 40.65 Q 429.659 43.142 428.692 43.455 A 0.934 0.934 0 0 1 428.402 43.5 L 415.702 43.5 L 415.702 53.5 L 434.102 53.5 A 1.376 1.376 0 0 1 435.182 54.069 Q 436.018 55.082 436.402 57.9 A 24.656 24.656 0 0 1 436.673 60.631 A 29.19 29.19 0 0 1 436.702 61.95 Q 436.702 64.1 436.102 67.5 Q 435.502 70.9 434.102 70.9 L 399.902 70.9 A 6.842 6.842 0 0 1 398.515 70.772 Q 396.102 70.271 396.102 67.8 L 396.102 3.5 A 4.279 4.279 0 0 1 396.204 2.519 Q 396.517 1.196 397.788 0.954 A 3.293 3.293 0 0 1 398.402 0.9 L 434.202 0.9 A 1.201 1.201 0 0 1 435.211 1.591 Q 436.223 3.243 436.296 8.85 A 68.891 68.891 0 0 1 436.302 9.75 Q 436.302 17.738 434.591 18.516 A 0.929 0.929 0 0 1 434.202 18.6 L 415.702 18.6 L 415.702 28.7 Z M 465.002 28.7 L 477.902 28.7 A 1.147 1.147 0 0 1 478.873 29.334 Q 479.578 30.451 479.748 33.54 A 39.572 39.572 0 0 1 479.802 35.7 A 24.222 24.222 0 0 1 479.728 37.53 Q 479.653 38.512 479.504 39.619 A 46.964 46.964 0 0 1 479.352 40.65 Q 478.959 43.142 477.992 43.455 A 0.934 0.934 0 0 1 477.702 43.5 L 465.002 43.5 L 465.002 53.5 L 483.402 53.5 A 1.376 1.376 0 0 1 484.482 54.069 Q 485.318 55.082 485.702 57.9 A 24.656 24.656 0 0 1 485.973 60.631 A 29.19 29.19 0 0 1 486.002 61.95 Q 486.002 64.1 485.402 67.5 Q 484.802 70.9 483.402 70.9 L 449.202 70.9 A 6.842 6.842 0 0 1 447.815 70.772 Q 445.402 70.271 445.402 67.8 L 445.402 3.5 A 4.279 4.279 0 0 1 445.504 2.519 Q 445.817 1.196 447.088 0.954 A 3.293 3.293 0 0 1 447.702 0.9 L 483.502 0.9 A 1.201 1.201 0 0 1 484.511 1.591 Q 485.523 3.243 485.596 8.85 A 68.891 68.891 0 0 1 485.602 9.75 Q 485.602 17.738 483.891 18.516 A 0.929 0.929 0 0 1 483.502 18.6 L 465.002 18.6 L 465.002 28.7 Z M 571.302 28.7 L 584.202 28.7 A 1.147 1.147 0 0 1 585.173 29.334 Q 585.878 30.451 586.048 33.54 A 39.572 39.572 0 0 1 586.102 35.7 A 24.222 24.222 0 0 1 586.028 37.53 Q 585.953 38.512 585.804 39.619 A 46.964 46.964 0 0 1 585.652 40.65 Q 585.259 43.142 584.292 43.455 A 0.934 0.934 0 0 1 584.002 43.5 L 571.302 43.5 L 571.302 53.5 L 589.702 53.5 A 1.376 1.376 0 0 1 590.782 54.069 Q 591.618 55.082 592.002 57.9 A 24.656 24.656 0 0 1 592.273 60.631 A 29.19 29.19 0 0 1 592.302 61.95 Q 592.302 64.1 591.702 67.5 Q 591.102 70.9 589.702 70.9 L 555.502 70.9 A 6.842 6.842 0 0 1 554.115 70.772 Q 551.702 70.271 551.702 67.8 L 551.702 3.5 A 4.279 4.279 0 0 1 551.804 2.519 Q 552.117 1.196 553.388 0.954 A 3.293 3.293 0 0 1 554.002 0.9 L 589.802 0.9 A 1.201 1.201 0 0 1 590.811 1.591 Q 591.823 3.243 591.896 8.85 A 68.891 68.891 0 0 1 591.902 9.75 Q 591.902 17.738 590.191 18.516 A 0.929 0.929 0 0 1 589.802 18.6 L 571.302 18.6 L 571.302 28.7 Z M 254.73 49.387 A 120.231 120.231 0 0 0 256.852 50.6 A 22.876 22.876 0 0 0 260.564 52.284 Q 262.937 53.1 265.198 53.189 A 14.032 14.032 0 0 0 265.752 53.2 A 8.028 8.028 0 0 0 267.303 53.064 Q 269.765 52.577 269.981 50.346 A 4.622 4.622 0 0 0 270.002 49.9 A 3.47 3.47 0 0 0 269.1 47.562 A 4.745 4.745 0 0 0 268.802 47.25 Q 267.839 46.328 265.589 45.18 A 39.638 39.638 0 0 0 264.402 44.6 Q 261.952 43.452 260.44 42.685 A 50.869 50.869 0 0 1 259.602 42.25 Q 258.219 41.516 256.052 39.96 A 74.716 74.716 0 0 1 255.352 39.45 A 21.194 21.194 0 0 1 253.405 37.841 Q 252.451 36.946 251.745 36.021 A 11.941 11.941 0 0 1 251.302 35.4 A 21.201 21.201 0 0 1 248.041 27.891 Q 247.302 24.682 247.302 20.9 A 19.342 19.342 0 0 1 253.252 6.624 A 24.043 24.043 0 0 1 253.852 6.05 A 22.325 22.325 0 0 1 265.065 0.534 A 31.603 31.603 0 0 1 271.002 0 A 58.632 58.632 0 0 1 279.164 0.547 A 47.96 47.96 0 0 1 284.302 1.55 Q 289.672 2.915 290.47 5.016 A 2.115 2.115 0 0 1 290.602 5.6 L 290.602 6.2 A 14.667 14.667 0 0 1 290.342 8.825 Q 289.862 11.453 288.493 14.828 A 49.584 49.584 0 0 1 288.402 15.05 A 86.335 86.335 0 0 1 287.623 16.89 Q 286.033 20.513 285.302 21 A 36.845 36.845 0 0 0 281.062 19.122 Q 278.779 18.289 276.696 17.944 A 17.413 17.413 0 0 0 273.852 17.7 A 10.494 10.494 0 0 0 272.072 17.838 Q 268.894 18.388 268.805 21.139 A 4.962 4.962 0 0 0 268.802 21.3 A 2.821 2.821 0 0 0 269.461 23.068 Q 270.204 24.015 271.788 24.85 A 14.717 14.717 0 0 0 272.502 25.2 Q 273.302 25.6 274.802 26.3 A 183.917 183.917 0 0 1 276.201 26.961 Q 276.917 27.302 277.713 27.688 A 323.329 323.329 0 0 1 278.252 27.95 A 34.913 34.913 0 0 1 280.277 29.025 A 47.859 47.859 0 0 1 282.452 30.35 Q 284.386 31.596 286.578 33.544 A 51.489 51.489 0 0 1 287.302 34.2 A 16.649 16.649 0 0 1 292.459 44.796 A 23.131 23.131 0 0 1 292.602 47.4 A 31.817 31.817 0 0 1 291.702 55.165 A 23.265 23.265 0 0 1 286.702 64.9 A 18.823 18.823 0 0 1 278.335 70.364 Q 275.273 71.403 271.533 71.742 A 40.962 40.962 0 0 1 268.502 71.9 Q 262.502 71.9 257.652 70.9 A 20.147 20.147 0 0 1 251.388 68.518 A 18.66 18.66 0 0 1 249.202 67 A 10.718 10.718 0 0 1 247.044 64.709 A 8.171 8.171 0 0 1 245.602 60 A 23.314 23.314 0 0 1 247.101 51.854 A 23.711 23.711 0 0 1 247.102 51.85 Q 248.279 48.672 249.579 47.188 A 5.04 5.04 0 0 1 250.302 46.5 Q 251.734 47.631 254.73 49.387 Z M 620.102 46.8 L 620.102 69.5 Q 620.102 71.1 610.602 71.1 A 96.129 96.129 0 0 1 607.836 71.064 Q 602.372 70.906 601.276 70.065 A 0.591 0.591 0 0 1 601.002 69.6 L 601.002 4.4 A 4.756 4.756 0 0 1 601.192 2.994 Q 601.671 1.448 603.356 1.044 A 5.782 5.782 0 0 1 604.702 0.9 L 623.802 0.9 A 49.492 49.492 0 0 1 633.401 1.746 Q 650.102 5.064 650.102 21.4 A 27.728 27.728 0 0 1 649.256 28.357 A 23.9 23.9 0 0 1 647.702 32.65 Q 645.302 37.7 640.902 40.7 L 653.502 61.7 A 5.664 5.664 0 0 1 652.71 63.187 Q 651.396 65.021 648.302 67.2 A 37.943 37.943 0 0 1 645.263 69.181 Q 642.125 71.002 639.685 71.393 A 8.107 8.107 0 0 1 638.402 71.5 A 8.583 8.583 0 0 1 636.058 71.199 A 6.048 6.048 0 0 1 632.602 68.7 L 623.202 46.8 L 620.102 46.8 Z M 90.402 53.7 L 97.302 53.7 L 97.302 18.1 L 90.202 18.1 A 1.422 1.422 0 0 1 89.109 17.545 Q 88.332 16.649 87.89 14.305 A 20.753 20.753 0 0 1 87.802 13.8 Q 87.502 11.7 87.502 9.5 Q 87.502 7.3 87.802 5.2 Q 88.502 0.9 90.202 0.9 L 123.802 0.9 A 1.397 1.397 0 0 1 124.902 1.48 Q 125.645 2.385 126.026 4.702 A 20.546 20.546 0 0 1 126.102 5.2 Q 126.502 7.3 126.502 9.5 Q 126.502 11.7 126.102 13.8 A 17.008 17.008 0 0 1 125.842 15.248 Q 125.187 18.1 123.802 18.1 L 117.102 18.1 L 117.102 53.7 L 124.102 53.7 A 1.422 1.422 0 0 1 125.195 54.256 Q 125.972 55.152 126.414 57.496 A 20.753 20.753 0 0 1 126.502 58 Q 126.902 60.1 126.902 62.3 Q 126.902 64.5 126.502 66.6 Q 125.802 70.9 124.102 70.9 L 90.402 70.9 A 1.397 1.397 0 0 1 89.302 70.321 Q 88.559 69.416 88.178 67.099 A 20.546 20.546 0 0 1 88.102 66.6 Q 87.702 64.5 87.702 62.3 Q 87.702 60.1 88.102 58 A 17.008 17.008 0 0 1 88.363 56.553 Q 89.017 53.7 90.402 53.7 Z M 494.302 69.1 L 494.302 4.3 A 5.404 5.404 0 0 1 494.445 2.996 Q 494.869 1.297 496.549 0.975 A 4.541 4.541 0 0 1 497.402 0.9 L 515.002 0.9 A 56.715 56.715 0 0 1 522.577 1.37 Q 531.619 2.592 536.352 7 A 19.598 19.598 0 0 1 541.862 16.33 Q 542.74 19.493 542.877 23.277 A 39.314 39.314 0 0 1 542.902 24.7 A 28.023 28.023 0 0 1 536.894 42.05 A 34.636 34.636 0 0 1 536.702 42.3 Q 533.789 46.059 528.317 48.404 A 31.649 31.649 0 0 1 527.602 48.7 Q 521.602 51.1 513.602 51.1 L 513.602 69 A 0.876 0.876 0 0 1 513.227 69.685 Q 512.561 70.225 510.716 70.529 A 19.946 19.946 0 0 1 509.852 70.65 A 74.959 74.959 0 0 1 507.187 70.925 Q 505.09 71.1 503.402 71.1 A 64.803 64.803 0 0 1 500.78 71.052 Q 494.302 70.788 494.302 69.1 Z M 515.702 18.3 L 513.602 18.3 L 513.602 34.1 L 514.902 34.1 A 9.205 9.205 0 0 0 518.035 33.584 A 8.132 8.132 0 0 0 520.802 31.9 A 7.172 7.172 0 0 0 522.956 28.078 A 10.846 10.846 0 0 0 523.202 25.7 A 15.354 15.354 0 0 0 523.086 23.738 Q 522.764 21.249 521.552 20 Q 520.044 18.447 516.405 18.313 A 19.177 19.177 0 0 0 515.702 18.3 Z M 622.202 18.6 L 620.102 18.6 L 620.102 33.6 L 620.602 33.6 A 16.691 16.691 0 0 0 624.128 33.262 Q 630.102 31.965 630.102 25.7 A 11.162 11.162 0 0 0 629.939 23.726 Q 629.741 22.624 629.301 21.764 A 5.154 5.154 0 0 0 628.252 20.35 A 5.426 5.426 0 0 0 626.448 19.25 Q 624.867 18.641 622.519 18.603 A 19.524 19.524 0 0 0 622.202 18.6 Z" vector-effect="non-scaling-stroke"/></g></svg>